<svg xmlns="http://www.w3.org/2000/svg" viewBox="0 0 128 128">
  <defs>
    <linearGradient id="claw9" x1="0" y1="1" x2="1" y2="0">
      <stop offset="0" stop-color="#2b62d9"/>
      <stop offset="0.55" stop-color="#3f9df8"/>
      <stop offset="1" stop-color="#63d7ff"/>
    </linearGradient>
    <radialGradient id="orb9" cx="0.35" cy="0.3" r="1">
      <stop offset="0" stop-color="#f2fbff"/>
      <stop offset="0.5" stop-color="#a5e6ff"/>
      <stop offset="1" stop-color="#46b4ff"/>
    </radialGradient>
    <radialGradient id="glow9" cx="0.62" cy="0.28" r="0.9">
      <stop offset="0" stop-color="#16345c" stop-opacity="0.85"/>
      <stop offset="1" stop-color="#070b14" stop-opacity="0"/>
    </radialGradient>
  </defs>
  <rect width="128" height="128" rx="30" fill="#070b14"/>
  <rect width="128" height="128" rx="30" fill="url(#glow9)"/>
  <path d="M 80.00 40.44 L 80.34 35.14 L 78.98 32.90 L 77.30 30.97 L 75.35 29.39 L 73.19 28.20 L 70.87 27.40 L 68.48 26.84 L 66.06 26.43 L 63.62 26.15 L 61.17 26.02 L 58.72 26.02 L 56.27 26.16 L 53.83 26.44 L 51.41 26.87 L 49.02 27.42 L 46.67 28.12 L 44.36 28.95 L 42.10 29.90 L 39.90 30.99 L 37.76 32.20 L 35.70 33.53 L 33.71 34.97 L 31.81 36.53 L 30.01 38.19 L 28.30 39.95 L 26.69 41.81 L 25.19 43.75 L 23.81 45.78 L 22.54 47.88 L 21.40 50.05 L 20.38 52.28 L 19.49 54.57 L 18.74 56.91 L 18.11 59.28 L 17.63 61.69 L 17.28 64.12 L 17.07 66.56 L 17.00 69.02 L 17.07 71.47 L 17.28 73.91 L 17.63 76.34 L 18.12 78.75 L 18.74 81.12 L 19.50 83.46 L 20.39 85.74 L 21.41 87.98 L 22.56 90.15 L 23.83 92.25 L 25.21 94.27 L 26.71 96.22 L 28.32 98.07 L 30.03 99.83 L 31.84 101.49 L 33.74 103.05 L 35.72 104.49 L 37.79 105.82 L 39.92 107.03 L 42.13 108.11 L 44.39 109.06 L 46.70 109.89 L 49.05 110.58 L 51.44 111.14 L 53.86 111.56 L 56.30 111.84 L 58.75 111.98 L 61.20 111.98 L 63.65 111.84 L 66.09 111.57 L 68.51 111.15 L 70.90 110.59 L 73.26 109.91 L 75.57 109.08 L 77.83 108.13 L 80.04 107.05 L 82.17 105.84 L 84.24 104.52 L 86.23 103.08 L 88.13 101.52 L 89.94 99.87 L 91.65 98.11 L 93.26 96.25 L 94.76 94.31 L 96.15 92.29 L 97.42 90.19 L 98.57 88.02 L 99.59 85.79 L 100.48 83.50 L 101.24 81.17 L 101.87 78.79 L 102.36 76.39 L 102.71 73.96 L 102.93 71.52 L 102.88 69.06 L 102.41 66.64 L 101.51 64.30 L 100.20 62.11 L 98.49 60.11 L 93.34 58.81 L 92.37 61.53 L 93.82 63.20 L 94.88 65.05 L 95.52 67.02 L 95.75 69.05 L 95.55 71.08 L 95.12 73.08 L 94.56 75.03 L 93.88 76.93 L 93.10 78.76 L 92.20 80.54 L 91.21 82.24 L 90.13 83.86 L 88.96 85.40 L 87.70 86.85 L 86.38 88.21 L 84.99 89.48 L 83.54 90.65 L 82.04 91.72 L 80.49 92.69 L 78.91 93.57 L 77.29 94.34 L 75.65 95.01 L 74.00 95.58 L 72.33 96.05 L 70.65 96.43 L 68.98 96.71 L 67.31 96.89 L 65.65 96.99 L 64.01 96.99 L 62.38 96.91 L 60.78 96.75 L 59.20 96.50 L 57.65 96.18 L 56.14 95.79 L 54.66 95.32 L 53.21 94.78 L 51.81 94.18 L 50.45 93.52 L 49.12 92.79 L 47.85 92.01 L 46.62 91.18 L 45.43 90.29 L 44.30 89.35 L 43.21 88.37 L 42.17 87.34 L 41.19 86.26 L 40.25 85.15 L 39.37 83.99 L 38.54 82.79 L 37.77 81.56 L 37.05 80.29 L 36.39 78.98 L 35.79 77.64 L 35.25 76.27 L 34.77 74.87 L 34.36 73.44 L 34.01 71.99 L 33.73 70.51 L 33.52 69.01 L 33.38 67.49 L 33.32 65.95 L 33.33 64.40 L 33.42 62.83 L 33.60 61.26 L 33.85 59.69 L 34.19 58.11 L 34.62 56.54 L 35.13 54.98 L 35.73 53.43 L 36.42 51.90 L 37.21 50.39 L 38.08 48.91 L 39.05 47.47 L 40.10 46.08 L 41.25 44.72 L 42.48 43.43 L 43.80 42.19 L 45.20 41.02 L 46.69 39.92 L 48.25 38.91 L 49.88 37.98 L 51.59 37.14 L 53.35 36.40 L 55.18 35.76 L 57.06 35.22 L 58.98 34.81 L 60.94 34.51 L 62.93 34.33 L 64.95 34.27 L 66.97 34.34 L 69.00 34.54 L 71.00 34.99 L 72.86 35.83 L 74.53 37.05 L 75.97 38.62 L 77.11 40.52 Z" fill="url(#claw9)" stroke="url(#claw9)" stroke-width="3" stroke-linejoin="round"/>
  <circle cx="92.77" cy="45.19" r="10.5" fill="#5fc6ff" opacity="0.16"/>
  <circle cx="92.77" cy="45.19" r="7.5" fill="url(#orb9)"/>
</svg>
